{"title":"\nThe Ranch Season 1. revittony","magnet":"magnet:?xt=urn:btih:b14049fe39ad797b87a220346918cbc0a88b17f1&dn=The+Ranch+Season+1.+revittony&tr=udp%3A%2F%2Ftracker.leechers-paradise.org%3A6969&tr=udp%3A%2F%2Fzer0day.ch%3A1337&tr=udp%3A%2F%2Fopen.demonii.com%3A1337&tr=udp%3A%2F%2Ftracker.coppersurfer.tk%3A6969&tr=udp%3A%2F%2Fexodus.desync.com%3A6969","uploader":"revittony1","categoryP":"video","categoryS":"tv_shows","size":"4387532196","seeders":"3","leechers":"7","description":"all 20 episodes of season 1\r\n\r\nS01E01 Back Where I Come From.mkv \r\nFormat : Matroska \r\nFormat version : Version 2 \r\nFile size : 203 MiB \r\nDuration : 28 min 50 s \r\nOverall bit rate : 986 kb/s \r\nEncoded date : UTC 2016-04-11 23:08:43 \r\nWriting application : mkvmerge v9.0.1 (&apos;Obstacles&apos;) 32bit \r\nWriting library : libebml v1.3.3 + libmatroska v1.4.4 \r\n\r\nVideo \r\nID : 1 \r\nFormat : AVC \r\nFormat/Info : Advanced Video Codec \r\nFormat profile : <a href=\"/cdn-cgi/l/email-protection\" class=\"__cf_email__\" data-cfemail=\"2961404e4169651d0718\">[email&#xA0;protected]</a> \r\nFormat settings : CABAC / 8 Ref Frames \r\nFormat settings, CABAC : Yes \r\nFormat settings, RefFrames : 8 frames \r\nCodec ID : V_MPEG4/ISO/AVC \r\nDuration : 28 min 49 s \r\nBit rate : 920 kb/s \r\nWidth : 1 280 pixels \r\nHeight : 720 pixels \r\nDisplay aspect ratio : 16:9 \r\nFrame rate mode : Constant \r\nFrame rate : 23.976 (24000/1001) FPS \r\nColor space : YUV \r\nChroma subsampling : 4:2:0 \r\nBit depth : 8 bits \r\nScan type : Progressive \r\nBits/(Pixel*Frame) : 0.042 \r\nStream size : 190 MiB (93%) \r\nLanguage : English \r\nDefault : Yes \r\nForced : No \r\n\r\nAudio \r\nID : 2 \r\nFormat : AAC \r\nFormat/Info : Advanced Audio Codec \r\nFormat profile : HE-AAC / LC \r\nFormat settings : Explicit \r\nCodec ID : A_AAC-2 \r\nDuration : 28 min 50 s \r\nBit rate : 64.0 kb/s \r\nChannel(s) : 2 channels \r\nChannel positions : Front: L R \r\nSampling rate : 48.0 kHz / 24.0 kHz \r\nFrame rate : 23.438 FPS (1024 SPF) \r\nCompression mode : Lossy \r\nDelay relative to video : 31 ms \r\nStream size : 13.2 MiB (6%) \r\nLanguage : English \r\nDefault : Yes \r\nForced : No","last_updated":"2017-09-29T12:09:30.208Z","parsed":{"xt":"urn:btih:b14049fe39ad797b87a220346918cbc0a88b17f1","dn":"The Ranch Season 1. revittony","tr":["udp://exodus.desync.com:6969","udp://open.demonii.com:1337","udp://tracker.coppersurfer.tk:6969","udp://tracker.leechers-paradise.org:6969","udp://zer0day.ch:1337"],"infoHash":"b14049fe39ad797b87a220346918cbc0a88b17f1","infoHashBuffer":{"type":"Buffer","data":[177,64,73,254,57,173,121,123,135,162,32,52,105,24,203,192,168,139,23,241]},"name":"The Ranch Season 1. revittony","announce":["udp://exodus.desync.com:6969","udp://open.demonii.com:1337","udp://tracker.coppersurfer.tk:6969","udp://tracker.leechers-paradise.org:6969","udp://zer0day.ch:1337"],"urlList":[]}}